<?xml version="1.0" encoding="utf-8"?>
<!-- Generator: Adobe Illustrator 21.0.1, SVG Export Plug-In . SVG Version: 6.00 Build 0)  -->
<svg version="1.1" id="Layer_1" xmlns="http://www.w3.org/2000/svg" xmlns:xlink="http://www.w3.org/1999/xlink" x="0px" y="0px"
	 viewBox="0 0 101 101" style="enable-background:new 0 0 101 101;" xml:space="preserve">
<path id="gear" d="M98.4,35l-7.2-1c-1.5-3.6-3.4-6.9-5.7-10l2.7-6.8c-3.3-3.7-7.1-6.9-11.3-9.6l-6.2,3.9c-3.3-1.8-6.9-3.1-10.7-3.9
	l-2.2-7c-2.4-0.4-4.9-0.5-7.4-0.5c-2.5,0-5,0.2-7.4,0.5l-2.2,7c-3.8,0.8-7.4,2.2-10.7,3.9L24,7.6c-4.2,2.6-8,5.9-11.3,9.6l2.7,6.8
	c-2.3,3-4.2,6.4-5.7,10l-7.2,1C1,39.6,0.1,44.5,0,49.6l6.4,3.4c0.2,3.9,0.8,7.7,2,11.3l-4.9,5.4c1.8,4.7,4.3,9,7.4,12.9l7.1-1.5
	c2.6,2.8,5.5,5.3,8.7,7.4l-0.3,7.3c4.3,2.3,8.9,4.1,13.8,5.1l4.5-5.8c1.9,0.2,3.8,0.4,5.7,0.4c1.9,0,3.8-0.1,5.7-0.4l-0.5-3.7
	c-0.7,0.1-1.5,0.2-2.2,0.2c-1,0.1-2,0.1-3,0.1c-1,0-2,0-3-0.1c-7.6-0.6-14.7-3.3-20.6-7.6c-1.6-1.2-3.2-2.5-4.6-3.9
	c-5.2-5.2-9.1-11.7-11-19.1c-0.5-1.9-0.8-4-1-6c-0.1-1.3-0.2-2.7-0.2-4.1c0-6.3,1.4-12.3,4-17.7c0.9-1.8,1.9-3.6,3-5.3
	c4.2-6.2,10-11.1,16.8-14.2c1.8-0.8,3.7-1.5,5.7-2.1c3.5-1,7.2-1.5,10.9-1.5c3.8,0,7.5,0.5,10.9,1.5c2,0.6,3.9,1.3,5.7,2.1
	c6.8,3.1,12.6,8,16.8,14.2c1.1,1.7,2.1,3.4,3,5.3c2.6,5.4,4,11.4,4,17.7c0,1.4-0.1,2.7-0.2,4.1c-0.2,2.1-0.6,4.1-1,6
	c-0.2,0.7-0.4,1.4-0.6,2.1l3.5,1.1c1.1-3.6,1.8-7.4,2-11.3l6.4-3.4C100.8,44.5,99.9,39.6,98.4,35"/>
<path id="r" d="M34,31h27.2c5.7,0,10.5,3.6,12.3,8.7c0.5,1.4,0.7,2.8,0.7,4.3c0,1.5-0.3,3-0.7,4.3c-1.7,4.9-6.4,8.5-11.9,8.7L78,83
	H67.7L51.4,57h-8.7v17.3H34V57v-8.7v-8.7v-7.6V31z M42.7,39.7v8.7h6.2h12.3c2.4,0,4.4-1.9,4.4-4.3s-2-4.3-4.4-4.3H48.9H42.7z"/>
</svg>
